<mxfile host="app.diagrams.net" modified="2022-10-24T07:35:45.432Z" agent="5.0 (Windows NT 10.0; Win64; x64) AppleWebKit/537.36 (KHTML, like Gecko) Chrome/106.0.0.0 Safari/537.36" etag="EGeLvVwIW5NTk8OJOTja" version="20.5.1" type="github">
  <diagram id="7ensfnvPJ9o3qxlsRv0P" name="第 1 页">
    <mxGraphModel dx="488" dy="541" grid="1" gridSize="10" guides="1" tooltips="1" connect="1" arrows="1" fold="1" page="1" pageScale="1" pageWidth="827" pageHeight="1169" math="0" shadow="0">
      <root>
        <mxCell id="0" />
        <mxCell id="1" parent="0" />
        <mxCell id="efpCSoyH4d4UZwot-5p3-1" value="AddRoundKey" style="rounded=1;whiteSpace=wrap;html=1;fillColor=#7EA6E0;strokeColor=#6c8ebf;fontColor=#FFFFFF;" vertex="1" parent="1">
          <mxGeometry x="400" y="160" width="120" height="20" as="geometry" />
        </mxCell>
        <mxCell id="efpCSoyH4d4UZwot-5p3-2" value="SubBytes" style="rounded=1;whiteSpace=wrap;html=1;fillColor=#7EA6E0;strokeColor=#6c8ebf;fontColor=#FFFFFF;" vertex="1" parent="1">
          <mxGeometry x="400" y="220" width="120" height="20" as="geometry" />
        </mxCell>
        <mxCell id="efpCSoyH4d4UZwot-5p3-3" value="ShiftRows" style="rounded=1;whiteSpace=wrap;html=1;fillColor=#7EA6E0;strokeColor=#6c8ebf;fontColor=#FFFFFF;" vertex="1" parent="1">
          <mxGeometry x="400" y="260" width="120" height="20" as="geometry" />
        </mxCell>
        <mxCell id="efpCSoyH4d4UZwot-5p3-4" value="MixColumns" style="rounded=1;whiteSpace=wrap;html=1;fillColor=#7EA6E0;strokeColor=#6c8ebf;fontColor=#FFFFFF;" vertex="1" parent="1">
          <mxGeometry x="400" y="300" width="120" height="20" as="geometry" />
        </mxCell>
        <mxCell id="efpCSoyH4d4UZwot-5p3-7" value="AddRoundKey" style="rounded=1;whiteSpace=wrap;html=1;fillColor=#7EA6E0;strokeColor=#6c8ebf;fontColor=#FFFFFF;" vertex="1" parent="1">
          <mxGeometry x="400" y="340" width="120" height="20" as="geometry" />
        </mxCell>
        <mxCell id="efpCSoyH4d4UZwot-5p3-8" value="SubBytes" style="rounded=1;whiteSpace=wrap;html=1;fillColor=#7EA6E0;strokeColor=#6c8ebf;fontColor=#FFFFFF;" vertex="1" parent="1">
          <mxGeometry x="400" y="400" width="120" height="20" as="geometry" />
        </mxCell>
        <mxCell id="efpCSoyH4d4UZwot-5p3-9" value="ShiftRows" style="rounded=1;whiteSpace=wrap;html=1;fillColor=#7EA6E0;strokeColor=#6c8ebf;fontColor=#FFFFFF;" vertex="1" parent="1">
          <mxGeometry x="400" y="440" width="120" height="20" as="geometry" />
        </mxCell>
        <mxCell id="efpCSoyH4d4UZwot-5p3-11" value="AddRoundKey" style="rounded=1;whiteSpace=wrap;html=1;fillColor=#7EA6E0;strokeColor=#6c8ebf;fontColor=#FFFFFF;" vertex="1" parent="1">
          <mxGeometry x="400" y="480" width="120" height="20" as="geometry" />
        </mxCell>
      </root>
    </mxGraphModel>
  </diagram>
</mxfile>
